<svg xmlns="http://www.w3.org/2000/svg" xmlns:xlink="http://www.w3.org/1999/xlink" viewBox="0 0 1501 1598"><defs><style>.cls-1{opacity:0.3;}.cls-2,.cls-4{fill:none;}.cls-2,.cls-4,.cls-6{stroke:#b3b3b3;stroke-miterlimit:10;stroke-width:10px;}.cls-3{fill:#b3b3b3;}.cls-4{stroke-linecap:round;}.cls-5,.cls-6{fill:#fff;}</style></defs><title>Asset 1</title><g id="Layer_2" data-name="Layer 2"><g id="Layer_1-2" data-name="Layer 1"><image width="200" height="197" transform="translate(858 1343) scale(1.27)" xlink:href="iOS App/menu-bag.png"/><image class="cls-1" width="1200" height="1200" transform="translate(52.35 1117.35) scale(0.09)" xlink:href="iOS App/ypwovuikxnuxbbmwxaek.png"/><circle class="cls-2" cx="105" cy="1170" r="98"/><circle class="cls-2" cx="103" cy="1468" r="98"/><path class="cls-3" d="M102.56,1427.82c1.21,2.08,2.34,4.12,3.57,6.11,4.33,7,9.85,13.07,15.23,19.25a77.47,77.47,0,0,1,7.8,9.94c5.5,8.92,6.8,18.43,2.1,28.09s-12.75,15.1-23.34,16.57c-6.36.88-12.71.56-18.68-2.13-9.37-4.22-15.69-11.12-17.64-21.42-1.46-7.75.4-14.91,4.62-21.52,2.74-4.3,6.23-8,9.59-11.78A125.78,125.78,0,0,0,98,1435.53c1.45-2.27,2.72-4.65,4.08-7Z"/><image width="316" height="304" transform="translate(412 1339) scale(0.85)" xlink:href="iOS App/lettuce.png"/><image width="4025" height="4096" transform="translate(535) scale(0.24)" xlink:href="BLACKBIRD/PONIX/Branding/ponixring copy.png"/><rect class="cls-3" x="930.5" y="1132.96" width="108" height="12"/><rect class="cls-3" x="930.5" y="1164.25" width="108" height="12"/><rect class="cls-3" x="930.5" y="1195.54" width="108" height="12"/><image class="cls-1" width="237" height="213" transform="translate(441 1075) scale(0.89)" xlink:href="iOS App/camera.png"/><circle class="cls-2" cx="103.5" cy="664.5" r="32.3"/><line class="cls-4" x1="103.06" y1="632.2" x2="103.06" y2="603"/><line class="cls-4" x1="103.06" y1="726" x2="103.06" y2="696.8"/><line class="cls-4" x1="135.8" y1="664.94" x2="165" y2="664.94"/><line class="cls-4" x1="42" y1="664.94" x2="71.2" y2="664.94"/><line class="cls-4" x1="80.35" y1="642.86" x2="59.7" y2="622.21"/><line class="cls-4" x1="146.67" y1="709.18" x2="126.03" y2="688.54"/><line class="cls-4" x1="126.65" y1="642.86" x2="147.3" y2="622.21"/><line class="cls-4" x1="60.33" y1="709.18" x2="80.97" y2="688.54"/><rect class="cls-2" x="91.06" y="129" width="25.87" height="106.21" rx="11.93" ry="11.93"/><circle class="cls-2" cx="104" cy="233.17" r="23.83"/><circle class="cls-5" cx="104.5" cy="233" r="19"/><rect class="cls-5" x="96" y="200" width="16" height="18"/><path class="cls-3" d="M82.06,929.32a9.87,9.87,0,0,0-4.49-1.13,9.65,9.65,0,0,0-8.51,5,10.27,10.27,0,0,0-1.29,5.11,10.39,10.39,0,0,0,1.29,5.13,9.71,9.71,0,0,0,3.54,3.68,9.45,9.45,0,0,0,5,1.36,10.38,10.38,0,0,0,4.39-1,13.8,13.8,0,0,0,4-2.78l4.28,4.65a19.39,19.39,0,0,1-6,4.23,16.84,16.84,0,0,1-7,1.56,17.16,17.16,0,0,1-8.6-2.18,16,16,0,0,1-6.07-6,16.69,16.69,0,0,1-2.21-8.51A16.07,16.07,0,0,1,68.76,924a17.79,17.79,0,0,1,8.72-2.16,18.17,18.17,0,0,1,12.7,5.38l-4.23,5.2A12.23,12.23,0,0,0,82.06,929.32Z"/><path class="cls-3" d="M122.33,924a16.45,16.45,0,0,1,0,28.87,18.76,18.76,0,0,1-17.57,0,16.22,16.22,0,0,1-8.51-14.47,16.18,16.18,0,0,1,8.49-14.4,19,19,0,0,1,17.59,0Zm-13.66,5.54a9.9,9.9,0,0,0-3.63,3.7,10.44,10.44,0,0,0,3.66,14.08,9.37,9.37,0,0,0,4.94,1.38,9.25,9.25,0,0,0,4.9-1.36,9.85,9.85,0,0,0,3.54-3.73,10.6,10.6,0,0,0,1.31-5.22,10.38,10.38,0,0,0-1.31-5.15,9.91,9.91,0,0,0-3.54-3.7,9.26,9.26,0,0,0-4.9-1.36A9.61,9.61,0,0,0,108.67,929.55Z"/><path class="cls-3" d="M151.81,966.33v3.54H137.7v-2.92l6.95-7.16a10.06,10.06,0,0,0,1.49-1.84,3.13,3.13,0,0,0,.55-1.57A1.61,1.61,0,0,0,146,955a3.17,3.17,0,0,0-1.89-.5,6.28,6.28,0,0,0-2.57.62,11.17,11.17,0,0,0-2.66,1.72l-1.66-3.17a12.47,12.47,0,0,1,7.51-2.76,8.59,8.59,0,0,1,3.33.6,5.21,5.21,0,0,1,2.25,1.69,4.14,4.14,0,0,1,.8,2.53,5.65,5.65,0,0,1-.94,2.95,19.65,19.65,0,0,1-2.66,3.3l-4.32,4.34Z"/><line class="cls-2" x1="102.86" y1="877.93" x2="139.15" y2="858.96"/><line class="cls-2" x1="67.39" y1="858.96" x2="102.86" y2="877.93"/><circle class="cls-6" cx="63.56" cy="855.27" r="12.73"/><circle class="cls-6" cx="142.75" cy="855.22" r="12.75"/><circle class="cls-6" cx="103.13" cy="878.34" r="19.66"/><path class="cls-2" d="M104.47,372.77c1.72,3,3.32,5.86,5.07,8.68,6.16,10,14,18.57,21.64,27.35,3.93,4.51,8,9.06,11.08,14.13,7.82,12.67,9.66,26.19,3,39.91s-18.11,21.46-33.16,23.54c-9,1.25-18.06.8-26.54-3-13.32-6-22.3-15.8-25.06-30.43-2.08-11,.57-21.19,6.56-30.57,3.9-6.11,8.85-11.36,13.63-16.74,6.19-7,12.33-14,17.38-21.88,2.06-3.22,3.87-6.6,5.79-9.91C104,373.48,104.24,373.15,104.47,372.77Z"/></g></g></svg>